<svg xmlns="http://www.w3.org/2000/svg" viewBox="0 0 80 80">
  <defs>
    <linearGradient id="favLime" x1="0" y1="0" x2="1" y2="1">
      <stop offset="0%" stop-color="#d4ff00"/>
      <stop offset="100%" stop-color="#b8e600"/>
    </linearGradient>
  </defs>
  <!-- Dark bg to ensure favicon contrast in browser tabs -->
  <rect width="80" height="80" rx="12" fill="#0a0a0a"/>
  <!-- Shield outline (thicker for small-size clarity) -->
  <path d="M 40 10 L 70 18 L 70 48 Q 70 66 40 80 Q 10 66 10 48 L 10 18 Z"
        fill="none" stroke="url(#favLime)" stroke-width="5" stroke-linejoin="round"/>
  <!-- Lucide Handshake icon inside -->
  <g transform="translate(20, 28) scale(1.7)"
     fill="none"
     stroke="url(#favLime)"
     stroke-width="2"
     stroke-linecap="round"
     stroke-linejoin="round">
    <path d="m11 17 2 2a1 1 0 1 0 3-3"/>
    <path d="m14 14 2.5 2.5a1 1 0 1 0 3-3l-3.88-3.88a3 3 0 0 0-4.24 0l-.88.88a1 1 0 1 1-3-3l2.81-2.81a5.79 5.79 0 0 1 7.06-.87l.47.28a2 2 0 0 0 1.42.25L21 4"/>
    <path d="m21 3 1 11h-2"/>
    <path d="M3 3 2 14l6.5 6.5a1 1 0 1 0 3-3"/>
    <path d="M3 4h8"/>
  </g>
</svg>
